<?xml version="1.0" encoding="UTF-8" standalone="no"?>
<!-- Generated by IcoMoon.io -->

<svg
   xmlns:dc="http://purl.org/dc/elements/1.1/"
   xmlns:cc="http://creativecommons.org/ns#"
   xmlns:rdf="http://www.w3.org/1999/02/22-rdf-syntax-ns#"
   xmlns:svg="http://www.w3.org/2000/svg"
   xmlns="http://www.w3.org/2000/svg"
   xmlns:sodipodi="http://sodipodi.sourceforge.net/DTD/sodipodi-0.dtd"
   xmlns:inkscape="http://www.inkscape.org/namespaces/inkscape"
   version="1.1"
   width="120"
   height="120"
   viewBox="0 0 120 120"
   id="svg4217"
   inkscape:version="0.91 r13725"
   sodipodi:docname="background.svg">
  <metadata
     id="metadata4227">
    <rdf:RDF>
      <cc:Work
         rdf:about="">
        <dc:format>image/svg+xml</dc:format>
        <dc:type
           rdf:resource="http://purl.org/dc/dcmitype/StillImage" />
        <dc:title>cloud</dc:title>
      </cc:Work>
    </rdf:RDF>
  </metadata>
  <defs
     id="defs4225" />
  <sodipodi:namedview
     pagecolor="#e2b5ba"
     bordercolor="#666666"
     borderopacity="1"
     objecttolerance="10"
     gridtolerance="10"
     guidetolerance="10"
     inkscape:pageopacity="0"
     inkscape:pageshadow="2"
     inkscape:window-width="1920"
     inkscape:window-height="1013"
     id="namedview4223"
     showgrid="false"
     inkscape:zoom="3.9285714"
     inkscape:cx="7.7667289"
     inkscape:cy="48.876398"
     inkscape:window-x="1920"
     inkscape:window-y="24"
     inkscape:window-maximized="1"
     inkscape:current-layer="svg4217"
     fit-margin-top="0"
     fit-margin-left="0"
     fit-margin-right="0"
     fit-margin-bottom="0" />
  <title
     id="title4219">cloud</title>
  <g
     id="g6193"
     transform="matrix(16.743118,0,0,16.743118,0,-1889.1741)"
     style="opacity:0.9">
    <path
       style="fill:#ffffff;fill-opacity:1"
       inkscape:connector-curvature="0"
       id="path4221"
       d="m 4.3603295,119.12793 c 0,0.48153 -0.390685,0.87207 -0.872066,0.87207 l -2.4708531,0 C 0.4565266,120 0,119.54347 0,118.98259 c 0,-0.40653 0.2406903,-0.75856 0.585883,-0.91974 -0.00233,-0.0318 -0.00451,-0.0658 -0.00451,-0.0977 0,-0.64272 0.5200421,-1.16276 1.1627548,-1.16276 0.4860311,0 0.9015711,0.29752 1.0764201,0.72222 0.1,-0.0885 0.231679,-0.14084 0.377023,-0.14084 0.3201936,0 0.5813766,0.26118 0.5813766,0.58138 0,0.11583 -0.03401,0.22252 -0.09317,0.31336 0.386034,0.0908 0.674543,0.43603 0.674543,0.84939 z" />
    <path
       style="fill:#ffffff;fill-opacity:1"
       inkscape:connector-curvature="0"
       d="m 4.8043325,113.64388 0.23293,-0.22611 -0.321258,-0.0472 -0.143869,-0.29081 -0.14387,0.29081 -0.321258,0.0472 0.232928,0.22611 -0.05559,0.32047 0.287739,-0.15147 0.287008,0.15147 z m 0.401159,-0.27176 c 0,0.0137 -0.0099,0.0266 -0.01978,0.0365 l -0.276338,0.26947 0.06548,0.38059 c 7.53e-4,0.005 7.53e-4,0.01 7.53e-4,0.0152 0,0.0206 -0.0091,0.038 -0.03123,0.038 -0.01067,0 -0.02134,-0.004 -0.03045,-0.009 l -0.34182,-0.17963 -0.341818,0.17963 c -0.0099,0.005 -0.01978,0.009 -0.03045,0.009 -0.02207,0 -0.03196,-0.0183 -0.03196,-0.038 0,-0.005 7.54e-4,-0.01 0.0015,-0.0152 l 0.06548,-0.3806 -0.277118,-0.26946 c -0.0091,-0.01 -0.01905,-0.0229 -0.01905,-0.0365 0,-0.0229 0.02358,-0.032 0.04263,-0.035 l 0.382158,-0.0556 0.171298,-0.34635 c 0.0069,-0.0145 0.01978,-0.0312 0.03732,-0.0312 0.01754,0 0.03045,0.0168 0.03732,0.0312 l 0.171298,0.34635 0.382158,0.0556 c 0.01827,0.003 0.04263,0.0122 0.04263,0.035 z"
       id="path5975" />
    <path
       style="fill:#ffffff;fill-opacity:1"
       inkscape:connector-curvature="0"
       d="m 3.9804225,114.55253 0.162724,-0.16656 -0.22443,-0.0348 -0.100507,-0.21422 -0.100507,0.21422 -0.224431,0.0348 0.162723,0.16656 -0.03884,0.23607 0.201015,-0.11157 0.200503,0.11157 z m 0.280249,-0.20018 c 0,0.0101 -0.0069,0.0196 -0.01382,0.0269 l -0.19305,0.1985 0.04574,0.28036 c 5.26e-4,0.004 5.26e-4,0.007 5.26e-4,0.0112 0,0.0151 -0.0064,0.028 -0.02182,0.028 -0.0075,0 -0.01491,-0.003 -0.02127,-0.007 l -0.238795,-0.13232 -0.238794,0.13232 c -0.0069,0.004 -0.01382,0.007 -0.02127,0.007 -0.01542,0 -0.02233,-0.0135 -0.02233,-0.028 0,-0.004 5.26e-4,-0.007 0.001,-0.0112 l 0.0458,-0.28036 -0.1935954,-0.1985 c -0.0064,-0.007 -0.01331,-0.0168 -0.01331,-0.0269 0,-0.0168 0.01647,-0.0236 0.02978,-0.0258 l 0.2669764,-0.041 0.119668,-0.25513 c 0.0048,-0.0107 0.01382,-0.023 0.02607,-0.023 0.01225,0 0.02127,0.0123 0.02607,0.023 l 0.119668,0.25513 0.266976,0.041 c 0.01276,0.002 0.02978,0.009 0.02978,0.0258 z"
       id="path5975-6" />
    <path
       style="fill:#ffffff;fill-opacity:1"
       inkscape:connector-curvature="0"
       d="m 6.6441355,113.98775 0.297285,-0.28566 -0.410017,-0.0596 -0.183619,-0.3674 -0.183618,0.3674 -0.410019,0.0596 0.297283,0.28566 -0.07096,0.40489 0.367239,-0.19137 0.366304,0.19137 z m 0.511994,-0.34333 c 0,0.0173 -0.01261,0.0337 -0.02525,0.0462 l -0.352688,0.34044 0.08356,0.48084 c 9.61e-4,0.007 9.61e-4,0.0125 9.61e-4,0.0193 0,0.026 -0.01169,0.0481 -0.03986,0.0481 -0.0137,0 -0.02724,-0.005 -0.03886,-0.0115 l -0.43626,-0.22694 -0.436259,0.22694 c -0.01261,0.007 -0.02525,0.0115 -0.03886,0.0115 -0.02817,0 -0.04079,-0.0231 -0.04079,-0.0481 0,-0.007 9.61e-4,-0.0125 0.0018,-0.0193 l 0.08367,-0.48084 -0.353684,-0.34044 c -0.01169,-0.0125 -0.02432,-0.0289 -0.02432,-0.0462 0,-0.0289 0.03009,-0.0404 0.05441,-0.0443 l 0.487745,-0.0702 0.218624,-0.43756 c 0.0088,-0.0183 0.02525,-0.0395 0.04763,-0.0395 0.02238,0 0.03886,0.0212 0.04763,0.0395 l 0.218624,0.43756 0.487745,0.0702 c 0.02331,0.004 0.05441,0.0154 0.05441,0.0443 z"
       id="path5975-6-7" />
    <path
       style="fill:#ffffff;fill-opacity:1"
       inkscape:connector-curvature="0"
       d="m 3.0920955,116.9438 c -0.06551,0.011 -0.133003,0.0164 -0.200379,0.0164 -0.675742,0 -1.223959,-0.54821 -1.223959,-1.22396 0,-0.23127 0.06738,-0.45717 0.189422,-0.65021 -0.484454,0.14385 -0.830543,0.58832 -0.830543,1.11648 0,0.64299 0.522689,1.16568 1.165675,1.16568 0.351568,0 0.68122,-0.16028 0.899784,-0.42442 z m 0.369753,-0.1548 c -0.227657,0.49354 -0.726682,0.81235 -1.269537,0.81235 -0.770395,0 -1.39881,-0.62841 -1.39881,-1.39881 0,-0.75582 0.59193,-1.36966 1.346005,-1.39694 0.05106,-0.002 0.0929,0.0273 0.111089,0.071 0.02005,0.0456 0.0073,0.0984 -0.02728,0.13114 -0.207607,0.18942 -0.322426,0.44808 -0.322426,0.72854 0,0.54647 0.444472,0.99083 0.990824,0.99083 0.143844,0 0.282326,-0.031 0.41533,-0.0929 0.04558,-0.02 0.09652,-0.011 0.131138,0.0237 0.03462,0.0346 0.04371,0.0874 0.02366,0.13113 z"
       id="path6083" />
    <path
       style="fill:#ffffff;fill-opacity:1"
       inkscape:connector-curvature="0"
       d="m 6.5531085,115.73876 c 0.02497,0.0178 0.03684,0.0464 0.03213,0.0761 l -0.304497,1.82699 c -0.0036,0.0226 -0.01781,0.0416 -0.03806,0.0535 -0.01073,0.006 -0.02383,0.01 -0.03684,0.01 -0.0095,0 -0.01903,-0.002 -0.02854,-0.006 l -0.626822,-0.2557 -0.354435,0.38892 c -0.01424,0.0167 -0.03448,0.025 -0.05588,0.025 -0.0095,0 -0.01903,-10e-4 -0.02733,-0.005 -0.02977,-0.0119 -0.0488,-0.0404 -0.0488,-0.0714 l 0,-0.53766 -0.561417,-0.22959 c -0.02733,-0.0107 -0.04522,-0.0357 -0.04758,-0.0654 -0.0024,-0.0285 0.01309,-0.0559 0.03806,-0.0702 l 1.979243,-1.14184 c 0.02497,-0.0155 0.0571,-0.0142 0.08084,0.002 z m -0.406809,1.78298 0.262858,-1.57364 -1.705642,0.98368 0.399653,0.16298 1.02646,-0.76002 -0.568572,0.94797 z"
       id="path6146" />
  </g>
</svg>
