<svg xmlns="http://www.w3.org/2000/svg" width="120" height="120" viewBox="0 0 120 120"><title>cloud</title><g opacity=".9" fill="#fff"><path d="M73.006 105.399c0 8.062-6.542 14.601-14.602 14.601h-41.37C7.645 120 0 112.356 0 102.965c0-6.806 4.03-12.7 9.81-15.399a22.899 22.899 0 0 1-.076-1.636c0-10.76 8.707-19.468 19.468-19.468 8.138 0 15.095 4.982 18.023 12.092 1.674-1.481 3.879-2.358 6.312-2.358 5.361 0 9.734 4.373 9.734 9.734 0 1.94-.57 3.726-1.56 5.247 6.464 1.52 11.294 7.3 11.294 14.221zM80.44 13.579l3.9-3.786-5.38-.79-2.408-4.87-2.409 4.87-5.379.79 3.9 3.786-.93 5.365 4.817-2.536 4.805 2.536zm6.716-4.55c0 .23-.166.445-.331.61l-4.627 4.513 1.097 6.372c.012.084.012.167.012.254 0 .345-.152.637-.523.637a1.09 1.09 0 0 1-.51-.151l-5.723-3.008-5.723 3.008c-.166.084-.331.15-.51.15-.37 0-.535-.306-.535-.636 0-.083.013-.167.025-.254l1.097-6.373-4.64-4.511c-.152-.168-.319-.384-.319-.611 0-.384.395-.536.714-.586l6.398-.931 2.868-5.8c.116-.242.331-.522.625-.522s.51.282.625.523l2.868 5.799 6.399.93c.305.05.713.205.713.587zM66.645 28.792l2.724-2.788-3.757-.583-1.683-3.587-1.683 3.587-3.758.583 2.725 2.788-.65 3.953 3.365-1.868 3.357 1.868zm4.692-3.351c0 .169-.116.328-.231.45l-3.233 3.324.766 4.694c.009.067.009.117.009.187 0 .253-.107.47-.365.47a.686.686 0 0 1-.357-.118l-3.998-2.216-3.998 2.216a.717.717 0 0 1-.356.117c-.258 0-.374-.226-.374-.469 0-.067.009-.117.017-.187l.767-4.694-3.242-3.324c-.107-.117-.223-.281-.223-.45 0-.281.276-.395.5-.432l4.47-.687 2.003-4.271c.08-.18.231-.385.436-.385s.356.206.437.385l2.003 4.271 4.47.687c.214.033.499.15.499.432zM111.244 19.336l4.977-4.783-6.865-.997-3.074-6.152-3.075 6.152-6.865.997 4.978 4.783-1.188 6.78 6.148-3.205 6.134 3.204zm8.572-5.748c0 .29-.211.564-.423.773l-5.905 5.7 1.4 8.051c.015.117.015.21.015.323 0 .436-.196.806-.667.806-.23 0-.456-.084-.65-.193l-7.305-3.8-7.305 3.8a1.332 1.332 0 0 1-.65.193c-.472 0-.683-.387-.683-.806 0-.117.016-.209.03-.323l1.4-8.05-5.92-5.7c-.197-.21-.408-.485-.408-.774 0-.484.504-.677.911-.742l8.166-1.175 3.66-7.326c.148-.307.424-.662.798-.662.375 0 .65.355.798.662l3.66 7.326 8.167 1.175c.39.067.91.258.91.742z"/><path d="M51.771 68.83a20.33 20.33 0 0 1-3.355.274c-11.314 0-20.493-9.178-20.493-20.493a20.42 20.42 0 0 1 3.172-10.886 19.423 19.423 0 0 0-13.906 18.693c0 10.766 8.752 19.517 19.517 19.517 5.886 0 11.406-2.683 15.065-7.106zm6.191-2.592C54.15 74.5 45.795 79.839 36.706 79.839c-12.899 0-23.42-10.521-23.42-23.42a23.322 23.322 0 0 1 22.536-23.39 1.902 1.902 0 0 1 1.86 1.19c.336.763.122 1.647-.457 2.195-3.476 3.172-5.398 7.502-5.398 12.198 0 9.15 7.442 16.59 16.59 16.59a16.3 16.3 0 0 0 6.953-1.556c.763-.335 1.616-.184 2.196.397.58.58.732 1.463.396 2.196zM109.72 48.654c.418.298.616.776.537 1.274l-5.098 30.59c-.06.378-.298.696-.637.895-.18.1-.399.167-.617.167-.159 0-.318-.033-.478-.1l-10.495-4.281-5.934 6.512c-.238.28-.577.418-.936.418a1.05 1.05 0 0 1-.457-.084 1.292 1.292 0 0 1-.817-1.195v-9.002l-9.4-3.844a1.262 1.262 0 0 1-.797-1.095c-.04-.477.22-.936.637-1.176l33.14-19.118a1.25 1.25 0 0 1 1.353.034zm-6.812 29.852l4.401-26.347-28.557 16.47 6.691 2.728 17.186-12.725-9.52 15.872z"/></g></svg>
